<?xml version="1.0" encoding="UTF-8" standalone="no"?>
<!-- Generator: Adobe Illustrator 12.0.0, SVG Export Plug-In . SVG Version: 6.00 Build 51448)  -->
<svg
   xmlns:dc="http://purl.org/dc/elements/1.1/"
   xmlns:cc="http://web.resource.org/cc/"
   xmlns:rdf="http://www.w3.org/1999/02/22-rdf-syntax-ns#"
   xmlns:svg="http://www.w3.org/2000/svg"
   xmlns="http://www.w3.org/2000/svg"
   xmlns:sodipodi="http://sodipodi.sourceforge.net/DTD/sodipodi-0.dtd"
   xmlns:inkscape="http://www.inkscape.org/namespaces/inkscape"
   version="1.1"
   id="Calque_1"
   width="299.398"
   height="143.928"
   viewBox="0 0 299.398 143.928"
   overflow="visible"
   enable-background="new 0 0 299.398 143.928"
   xml:space="preserve"
   sodipodi:version="0.32"
   inkscape:version="0.44.1"
   sodipodi:docname="Lacoste logo.svg"
   sodipodi:docbase="C:\Documents and Settings\Sigurd\Mine dokumenter\Mine bilder"><metadata
   id="metadata10520"><rdf:RDF><cc:Work
       rdf:about=""><dc:format>image/svg+xml</dc:format><dc:type
         rdf:resource="http://purl.org/dc/dcmitype/StillImage" /></cc:Work></rdf:RDF></metadata><defs
   id="defs10518" /><sodipodi:namedview
   inkscape:window-height="721"
   inkscape:window-width="1024"
   inkscape:pageshadow="2"
   inkscape:pageopacity="0.0"
   guidetolerance="10.0"
   gridtolerance="10.0"
   objecttolerance="10.0"
   borderopacity="1.0"
   bordercolor="#666666"
   pagecolor="#ffffff"
   id="base"
   inkscape:zoom="2.5684873"
   inkscape:cx="149.69901"
   inkscape:cy="71.963997"
   inkscape:window-x="-4"
   inkscape:window-y="-4"
   inkscape:current-layer="g10495" />
<g
   id="g10495">
	<path
   style="opacity:1;color:black;fill:#db0026;fill-opacity:1;fill-rule:evenodd;stroke:none;stroke-width:0.63131315px;stroke-linecap:butt;stroke-linejoin:miter;marker:none;marker-start:none;marker-mid:none;marker-end:none;stroke-miterlimit:4;stroke-dasharray:none;stroke-dashoffset:0;stroke-opacity:1;visibility:visible;display:inline;overflow:visible"
   d="M 193.3138,52.304147 C 191.90936,50.432839 191.66609,47.123938 188.81669,46.829887 C 186.05144,46.082675 183.29837,45.286017 180.50712,44.63919 C 175.04113,45.528999 169.57516,46.41881 164.10917,47.308621 C 163.46872,50.254702 162.82827,53.200783 162.18782,56.146864 C 171.02606,57.299676 179.8643,58.452491 188.70254,59.605304 C 191.00817,61.142388 193.31379,62.679481 195.61943,64.216565 C 201.63968,64.857017 207.65993,65.497469 213.68018,66.137921 C 216.49818,65.113199 219.31616,64.08847 222.13415,63.063747 C 213.37276,60.23623 204.39977,57.983073 195.8844,54.461874 C 194.83736,53.979652 194.11083,53.098177 193.3138,52.304147 z "
   id="path11407" /><g
   id="g10497"
   style="fill:#004526;fill-opacity:1"
   transform="matrix(0.986996,0,0,0.986996,1.946671,0.935817)">
		<path
   d="M 226.527,62.559 C 225.927,61.777 224.96,61.464 224.291,61.164 C 223.637,60.855 223.731,60.217 223.184,60.032 C 222.624,59.852 221.645,60.993 220.884,60.756 C 220.124,60.507 220.18,59.087 219.545,58.877 C 218.895,58.672 217.765,59.737 217.174,59.548 C 216.579,59.375 216.463,57.883 215.889,57.693 C 215.321,57.52 214.115,58.581 213.527,58.399 C 212.936,58.2 212.898,56.747 212.242,56.531 C 211.589,56.331 210.441,57.417 209.871,57.221 C 209.282,57.039 209.225,55.589 208.599,55.378 C 207.966,55.177 206.805,56.242 206.221,56.05 C 205.619,55.856 205.455,54.366 204.907,54.186 C 204.347,54.015 203.254,54.894 202.365,54.843 C 196.196,54.268 193.836,50.387 193.416,51.535 C 193.004,52.66 194.702,55.397 196.836,56.321 C 198.538,57.061 216.914,62.148 217.396,62.375 C 217.865,62.607 219.026,63.124 218.613,63.794 C 217.973,64.651 216.179,63.803 215.722,63.425 C 215.26,63.041 215.365,62.901 214.932,62.785 C 213.946,62.551 213.4,64.346 212.359,64.106 C 211.411,63.893 211.477,61.988 210.514,61.766 C 209.452,61.508 208.971,63.314 207.96,63.078 C 207.121,62.889 207.006,60.949 206.106,60.732 C 205.072,60.482 204.603,62.292 203.526,62.041 C 202.6,61.824 202.652,59.932 201.683,59.699 C 200.715,59.47 200.04,61.224 199.126,61.017 C 198.209,60.804 198.075,58.871 197.261,58.678 C 196.428,58.493 195.772,59.476 194.653,59.622 C 194.653,59.622 191.438,60.491 186.356,55.182 C 181.263,49.884 179.175,48.854 176.277,51.013 C 171.545,54.537 168.606,52.207 167.75,51.159 C 166.721,49.958 167.798,48.854 167.798,48.854 C 167.798,48.854 169.301,51.174 171.193,51.216 C 174.241,51.307 176.54,47.147 181.764,47.073 C 188.382,46.835 190.107,49.186 191.916,49.373 C 193.592,49.537 194.151,49.267 195.311,48.594 L 195.304,48.594 C 196.242,48.26 197.058,50.073 198.041,49.707 C 199.08,49.315 198.32,47.488 199.439,47.067 C 200.485,46.693 201.168,48.529 202.169,48.156 C 203.222,47.772 202.551,45.894 203.562,45.528 C 204.603,45.152 205.211,47.007 206.291,46.611 C 207.376,46.225 206.675,44.366 207.663,43.992 C 208.682,43.62 209.419,45.446 210.42,45.09 C 211.368,44.751 210.826,42.807 211.813,42.453 C 212.838,42.085 213.5,43.917 214.592,43.516 C 215.49,43.203 214.993,41.257 215.924,40.904 C 216.854,40.557 217.718,42.361 218.686,41.999 C 219.594,41.664 219.063,39.73 220.029,39.368 C 221.052,38.999 221.841,40.803 222.808,40.463 C 223.765,40.119 223.039,38.559 224.287,37.939 C 224.287,37.939 226.015,37.371 225.906,36.103 C 225.892,35.89 225.535,33.179 222.689,32.604 C 219.952,32.054 198.339,38.032 198.059,37.687 C 196.07,33.757 193.521,34.849 193.133,34.937 C 192.737,35.037 190.324,36.064 187.652,35.037 C 182.403,32.662 178.213,38.703 175.338,37.908 C 172.691,37.164 170.667,37.593 169.557,37.971 C 168.541,38.323 166.894,39.646 163.402,38.445 C 136.416,29.231 115.325,37.286 115.325,37.286 C 103.433,41.259 101.912,37.286 101.912,37.286 C 101.912,37.286 97.998,31.97 125.553,25.629 C 165.159,16.531 166.353,1.475 165.884,0.523 C 165.234,-0.858 164.986,0.769 163.682,2.266 C 162.587,3.51 161.315,2.895 161.315,2.895 C 160.069,2.297 159.272,3.72 159.272,3.72 C 159.272,3.72 157.669,6.208 156.251,4.793 C 154.889,3.431 153.08,6.505 152.404,6.627 C 151.595,6.77 151.2,6.375 150.114,5.876 C 148.487,5.157 146.741,8.121 145.847,8.331 C 144.478,8.644 143.517,6.718 142.34,7.531 C 138.821,9.961 138.267,10.299 137.319,9.353 C 136.619,8.638 136.516,7.862 134.165,10.113 C 132.164,12.032 131.206,12.391 130.403,11.171 C 129.576,9.943 129.789,8.267 126.351,11.566 C 124.71,13.142 123.87,13.172 122.93,12.464 C 122.222,11.932 122.227,9.395 119.761,11.692 C 117.526,13.76 115.903,14.666 115.27,12.83 C 114.571,10.767 111.937,13.21 111.328,13.785 C 110.696,14.36 109.342,15.881 108.393,14.311 C 107.445,12.732 105.173,15.089 103.822,16.585 C 102.78,17.747 101.937,16.85 100.838,16.113 C 99.588,15.256 95.847,20.478 95.508,20.791 C 95.166,21.088 94.905,20.791 94.048,20.064 C 92.731,18.948 89.178,25.152 88.603,25.557 C 88.603,25.557 88.36,26.092 87.391,25.167 C 86.012,23.856 78.695,33.489 75.933,44.388 C 72.4,58.36 78.029,69.074 78.029,69.074 C 78.029,69.074 79.72,69.126 80.44,67.983 L 81.536,65.513 C 82.424,63.454 83.88,64.102 83.88,64.102 L 80.43,74.374 C 79.885,75.727 80.214,77.641 81.42,79.45 C 82.556,81.268 83.339,82.497 84.25,83.342 C 87.051,85.98 86.765,82.86 86.838,82.47 C 87.166,80.8 89.015,82.083 90.468,82.883 C 93.103,84.362 92.81,81.096 93.388,80.031 C 93.789,79.268 95.085,79.234 96.491,80.412 C 97.586,81.327 98.674,78.227 98.674,78.227 C 100.04,71.622 96.831,70.858 95.095,70.761 L 91.581,70.6 C 91.581,70.6 91.812,69.595 92.178,68.654 L 92.335,67.987 C 96.167,58.438 89.763,56.595 87.847,56.747 C 85.733,56.936 85.881,55.589 85.881,55.589 C 85.881,55.589 97.456,53.31 95.298,65.585 C 95.298,65.585 94.872,67.723 94.616,68.838 L 97.797,69.209 C 100.534,69.551 101.02,72.789 101.02,72.789 C 101.02,72.789 111.088,75.45 116.798,74.386 C 116.798,74.386 119.35,73.778 120.059,72.19 C 120.059,72.19 123.757,63.477 134.553,63.109 C 134.553,63.109 134.933,64.237 133.208,64.824 C 131.14,65.521 124.249,66.068 122.817,73.984 L 122.817,74.015 C 122.661,75.314 123.009,78.08 125.827,79.361 C 128.227,80.444 129.073,84.815 129.571,85.995 C 130.969,89.346 133.062,86.143 133.062,86.143 C 133.062,86.143 134.388,83.439 135.526,84.939 C 137.449,87.469 138.342,86.194 138.779,84.583 C 139.257,82.844 139.953,82.086 141.966,84.2 C 142.826,85.118 144.514,84.409 144.682,82.838 C 145.038,79.38 147.374,82.13 147.708,82.263 C 148.108,82.415 150.554,81.865 149.185,77.965 C 149.185,77.965 147.336,74.249 139,72.646 C 137.044,72.275 137.355,70.859 137.355,70.859 L 139.191,71.117 C 139.739,71.206 144.587,71.744 145.103,71.826 C 165.438,73.833 180.867,66.935 181.331,66.443 C 197.127,69.47 218.606,68.438 222.638,66.985 C 226.691,65.557 226.993,63.19 226.527,62.559 z M 193.912,37.352 C 194.242,36.82 194.554,36.519 194.841,36.374 C 196.067,35.677 196.849,37.859 196.7,37.939 C 196.693,37.943 196.665,37.952 196.653,37.957 C 196.651,37.96 196.651,37.968 196.649,37.971 C 196.456,38.064 194.091,38.735 193.858,38.581 C 193.39,38.256 193.912,37.352 193.912,37.352 z M 184.931,38.042 C 184.931,38.042 185.236,37.657 185.827,37.461 C 186.41,37.249 187.291,37.213 188.458,37.965 C 189.8,38.818 189.766,39.484 189.766,39.484 C 189.722,39.506 189.662,39.528 189.595,39.552 C 188.622,39.928 184.631,40.418 184.631,40.418 C 183.855,38.988 184.931,38.042 184.931,38.042 z M 110.483,18.727 C 111.154,19.244 110.511,22.221 110.033,21.782 L 106.586,19.959 C 106.586,19.959 109.796,18.225 110.483,18.727 z M 104.877,20.628 C 105.555,21.133 104.92,24.117 104.439,23.673 L 101.002,21.846 C 101.003,21.846 104.196,20.111 104.877,20.628 z M 102.938,26.449 C 103.619,26.958 102.98,29.947 102.494,29.515 L 99.051,27.666 C 99.051,27.666 102.253,25.944 102.938,26.449 z M 99.657,34.265 L 96.21,32.434 C 96.21,32.434 99.416,30.697 100.096,31.208 C 100.785,31.717 100.127,34.704 99.657,34.265 z M 99.008,40.16 L 95.571,38.329 C 95.571,38.329 98.77,36.6 99.452,37.1 C 100.133,37.604 99.498,40.579 99.008,40.16 z M 98.945,22.703 C 99.629,23.211 98.984,26.182 98.503,25.759 L 95.054,23.922 C 95.055,23.922 98.266,22.188 98.945,22.703 z M 95.955,27.241 C 96.63,27.748 95.991,30.72 95.515,30.297 L 92.073,28.466 C 92.072,28.466 95.274,26.726 95.955,27.241 z M 89.811,34.361 C 89.811,34.361 93.023,32.618 93.695,33.134 C 94.38,33.639 93.735,36.616 93.254,36.185 L 89.811,34.361 z M 92.45,41.818 L 89.014,39.98 C 89.014,39.98 92.219,38.256 92.895,38.765 C 93.579,39.271 92.938,42.246 92.45,41.818 z M 90,29.308 C 90.678,29.804 90.037,32.787 89.556,32.356 L 86.125,30.519 C 86.125,30.519 89.312,28.795 90,29.308 z M 86.903,35.312 C 87.585,35.817 86.946,38.812 86.454,38.371 L 83.019,36.543 C 83.02,36.543 86.223,34.822 86.903,35.312 z M 82.378,42.425 C 82.378,42.425 85.581,40.703 86.26,41.21 C 86.947,41.712 86.293,44.698 85.821,44.265 L 82.378,42.425 z M 88.519,49.153 L 85.08,47.32 C 85.08,47.32 88.285,45.584 88.966,46.093 C 89.647,46.604 88.997,49.579 88.519,49.153 z M 93.452,53.149 L 90.012,51.324 C 90.012,51.324 93.219,49.588 93.899,50.092 C 94.574,50.592 93.923,53.59 93.452,53.149 z M 94.994,46.911 L 91.552,45.072 C 91.552,45.072 94.758,43.35 95.438,43.843 C 96.119,44.353 95.474,47.33 94.994,46.911 z M 99.57,55.841 L 96.136,54.011 C 96.136,54.011 99.323,52.279 100.011,52.787 C 100.69,53.298 100.058,56.261 99.57,55.841 z M 101.222,50.095 L 97.785,48.265 C 97.785,48.265 100.984,46.543 101.662,47.051 C 102.342,47.552 101.709,50.534 101.222,50.095 z M 102.36,44.664 L 98.923,42.83 C 98.923,42.83 102.122,41.108 102.809,41.614 C 103.491,42.126 102.84,45.092 102.36,44.664 z M 107.196,55.147 L 103.758,53.305 C 103.758,53.305 106.958,51.586 107.644,52.085 C 108.333,52.592 107.681,55.582 107.196,55.147 z M 108.685,49.426 L 105.249,47.599 C 105.249,47.599 108.454,45.858 109.135,46.373 C 109.805,46.865 109.16,49.853 108.685,49.426 z M 109.932,43.365 L 106.494,41.533 C 106.494,41.533 109.695,39.816 110.382,40.314 C 111.058,40.823 110.413,43.797 109.932,43.365 z M 114.762,54.074 L 111.313,52.243 C 111.313,52.243 114.519,50.509 115.206,51.014 C 115.881,51.535 115.23,54.515 114.762,54.074 z M 115.917,47.954 L 112.48,46.114 C 112.48,46.114 115.686,44.387 116.364,44.889 C 117.046,45.403 116.4,48.368 115.917,47.954 z M 117.116,41.671 L 113.678,39.837 C 113.678,39.837 116.878,38.112 117.562,38.614 C 118.241,39.134 117.599,42.103 117.116,41.671 z M 122.292,51.655 L 118.85,49.84 C 118.85,49.84 122.055,48.107 122.727,48.611 C 123.418,49.116 122.773,52.09 122.292,51.655 z M 123.233,45.627 L 119.786,43.805 C 119.786,43.805 122.989,42.075 123.665,42.574 C 124.364,43.085 123.709,46.075 123.233,45.627 z M 124.427,39.719 L 120.978,37.898 C 120.978,37.898 124.189,36.157 124.864,36.659 C 125.544,37.173 124.901,40.16 124.427,39.719 z M 129.695,50.381 L 126.255,48.547 C 126.255,48.547 129.451,46.814 130.139,47.321 C 130.827,47.833 130.178,50.804 129.695,50.381 z M 130.634,44.753 L 127.191,42.927 C 127.191,42.927 130.4,41.182 131.075,41.702 C 131.755,42.194 131.112,45.188 130.634,44.753 z M 131.767,38.749 L 128.32,36.921 C 128.32,36.921 131.526,35.172 132.213,35.693 C 132.893,36.203 132.256,39.174 131.767,38.749 z M 136.534,50.487 L 133.101,48.656 C 133.101,48.656 136.301,46.917 136.981,47.436 C 137.663,47.937 137.017,50.914 136.534,50.487 z M 137.67,44.444 L 134.221,42.617 C 134.221,42.617 137.432,40.874 138.114,41.391 C 138.789,41.902 138.144,44.874 137.67,44.444 z M 138.958,38.429 L 135.515,36.601 C 135.515,36.601 138.721,34.858 139.403,35.377 C 140.09,35.881 139.439,38.864 138.958,38.429 z M 143.703,50.487 L 140.26,48.647 C 140.26,48.647 143.461,46.918 144.142,47.437 C 144.822,47.937 144.189,50.914 143.703,50.487 z M 144.804,44.779 L 141.37,42.942 C 141.37,42.942 144.567,41.227 145.247,41.716 C 145.93,42.229 145.288,45.214 144.804,44.779 z M 146.106,38.938 L 142.675,37.109 C 142.675,37.109 145.875,35.382 146.559,35.881 C 147.23,36.388 146.587,39.369 146.106,38.938 z M 150.442,51.349 L 147,49.499 C 147,49.499 150.206,47.784 150.886,48.295 C 151.574,48.791 150.931,51.775 150.442,51.349 z M 151.659,45.814 L 148.219,43.989 C 148.219,43.989 151.428,42.259 152.103,42.765 C 152.791,43.281 152.127,46.253 151.659,45.814 z M 152.973,40.16 L 149.524,38.338 C 149.524,38.338 152.732,36.605 153.417,37.1 C 154.095,37.604 153.441,40.579 152.973,40.16 z M 158.336,47.008 L 154.9,45.196 C 154.9,45.196 158.099,43.459 158.786,43.957 C 159.462,44.469 158.818,47.446 158.336,47.008 z "
   id="path10499"
   style="fill:#004526;fill-opacity:1" />
	</g>
	<g
   id="g10501"
   style="fill:black"
   transform="matrix(0.986996,0,0,0.986996,1.946671,0.935817)">
		<path
   d="M 67.926,99.146 C 67.208,97.239 65.843,96.417 63.343,96.379 C 63.115,96.372 51.549,96.39 51.549,96.39 L 34.43,143.003 C 34.43,143.003 42.757,143.003 42.763,143.003 C 43.481,143.055 44.149,142.942 44.749,142.672 C 46.371,141.933 47.166,140.053 47.397,139.412 C 47.397,139.428 49.726,132.918 49.886,132.492 C 51.078,132.492 66.192,132.486 67.109,132.486 C 67.469,133.584 70.608,142.982 70.608,142.982 L 81.886,142.982 L 74.732,120.297 L 67.926,99.146 M 64.453,122.919 C 62.743,122.919 53.522,122.921 52.848,122.921 C 54.1,119.494 57.216,110.824 58.547,107.314 C 59.697,110.854 64.423,122.804 64.453,122.919 z "
   id="path10503"
   style="fill:black" />
		<path
   d="M 149.08,96.017 L 149.074,96.017 L 149.074,96.017 C 135.733,96.035 126.057,106.049 126.057,119.817 C 126.057,133.307 135.947,143.484 149.08,143.484 C 162.206,143.484 172.498,133.095 172.498,119.817 C 172.498,106.469 162.206,96.017 149.08,96.017 M 149.414,133.085 C 142.614,133.085 137.285,127.204 137.285,119.691 C 137.285,112.247 142.499,106.639 149.406,106.639 C 156.263,106.639 161.236,112.124 161.236,119.691 C 161.235,127.332 156.15,133.085 149.414,133.085 z "
   id="path10505"
   style="fill:black" />
		<path
   d="M 202.678,115.635 L 202.24,115.507 C 202.252,115.513 197.902,114.19 197.891,114.178 L 197.241,113.947 C 193.688,112.663 191.165,111.587 191.165,109.518 C 191.165,109.467 191.165,109.414 191.165,109.366 C 191.518,105.933 197.892,105.896 197.954,105.896 C 201.468,105.896 204.17,106.434 207.593,107.809 L 207.666,107.836 L 207.813,107.879 C 208.603,108.039 209.295,108.061 209.855,107.937 L 210.803,107.578 C 212.163,106.83 213.516,102.867 214.035,101.198 L 214.203,100.663 L 213.784,100.279 C 213.62,100.121 212.623,99.3 208.997,97.947 C 205.309,96.566 200.086,96.35 200.086,96.35 L 197.509,96.339 C 184.051,96.339 178.913,104.644 178.75,110.222 C 178.639,115.779 181.802,118.639 186.584,121.237 C 188.584,122.345 192.238,123.364 194.887,124.105 C 194.873,124.093 197.629,124.909 197.629,124.909 C 202.642,126.484 204.558,128.233 204.202,130.946 C 204.042,131.843 202.348,133.327 198.499,133.327 C 195.57,133.327 192.924,132.877 190.169,131.916 C 188.846,131.39 187.477,130.711 186.031,129.853 L 185.962,129.809 L 185.814,129.745 C 185.014,129.447 184.297,129.322 183.682,129.374 L 182.623,129.602 C 181.078,130.18 178.929,134.103 178.07,135.762 L 177.732,136.417 L 178.316,136.88 C 178.42,136.95 180.811,138.851 182.842,140.04 C 185.234,141.365 187.919,142.325 191.09,142.966 C 192.368,143.199 194.398,143.494 197.579,143.494 C 208.007,143.494 215.583,138.211 216.454,130.345 C 216.833,123.208 212.454,118.551 202.678,115.635 z "
   id="path10507"
   style="fill:black" />
		<path
   d="M 224.972,96.447 C 224.539,96.44 222.264,96.485 220.956,97.695 C 220.354,98.248 220.039,98.987 220.039,99.82 L 220.032,107.195 C 220.032,107.195 232.613,107.185 234.261,107.185 C 234.261,108.919 234.261,143.021 234.261,143.021 L 245.916,143.011 C 245.916,143.011 245.916,108.916 245.916,107.185 C 247.47,107.183 255.074,107.183 255.074,107.183 C 255.505,107.183 257.775,107.134 259.088,105.93 C 259.683,105.365 260.007,104.643 260.007,103.798 L 260.007,96.447 L 224.972,96.447 L 224.972,96.447 z "
   id="path10509"
   style="fill:black" />
		<path
   d="M 25.044,132.472 C 25.044,132.472 15.257,132.472 11.96,132.472 C 11.96,130.753 11.923,100.699 11.923,100.699 C 11.923,99.38 11.529,98.333 10.735,97.601 C 9.467,96.411 7.58,96.417 6.876,96.432 L 0,96.417 L 0.018,143.003 L 29.186,143.003 L 29.208,135.6 C 29.208,134.652 28.803,132.472 25.044,132.472 z "
   id="path10511"
   style="fill:black" />
		<path
   d="M 108.443,106.35 C 111.27,106.162 113.649,106.35 115.893,106.964 C 117.098,107.366 118.186,107.446 119.108,107.186 C 119.111,107.184 120.038,106.773 120.038,106.773 C 121.343,105.969 122.277,101.874 122.718,99.514 L 122.819,98.961 L 122.344,98.619 C 122.225,98.532 121.854,98.273 117.63,97.133 C 113.783,96.096 110.359,95.969 108.671,95.981 L 108.485,95.983 C 98.832,95.983 84.295,102.355 83.878,119.9 L 83.878,120 C 84.295,137.551 98.833,143.921 108.492,143.921 L 108.671,143.928 C 110.359,143.935 113.777,143.797 117.63,142.762 C 121.855,141.632 122.225,141.37 122.348,141.281 L 122.82,140.947 L 122.719,140.391 C 122.278,138.018 121.344,133.932 120.039,133.122 L 120.039,133.116 L 120.039,133.116 L 120.039,133.116 L 119.112,132.708 C 118.187,132.456 117.098,132.538 115.876,132.948 C 113.644,133.548 111.266,133.742 108.409,133.554 C 101.098,132.839 96.707,127.863 96.376,119.91 C 96.706,112.034 101.098,107.059 108.443,106.35 z "
   id="path10513"
   style="fill:black" />
		<path
   d="M 294.539,142.982 C 296.339,142.942 299.398,141.881 299.398,138.302 L 299.363,132.456 L 278.823,132.465 C 278.823,132.465 278.858,125.765 278.858,124.655 C 280.543,124.655 295.813,124.655 295.813,124.655 L 295.784,113.877 C 295.784,113.877 280.565,113.895 278.887,113.895 C 278.883,112.621 278.887,108.478 278.887,107.196 C 280.566,107.196 294.452,107.177 294.452,107.177 C 294.879,107.184 297.203,107.186 298.462,105.93 C 299.341,105.049 299.381,103.445 299.381,102.61 L 299.381,96.456 L 267.07,96.456 L 267.076,143.019 L 294.539,142.982 z "
   id="path10515"
   style="fill:black" />
	</g>
</g>
</svg>